<?xml version="1.0" encoding="UTF-8"?>
<svg version="1.1" xmlns="http://www.w3.org/2000/svg" width="512" height="512">
<path d="M0 0 C3.48110591 0.00456605 6.96219247 -0.00247927 10.44329441 -0.00795984 C17.24166292 -0.01680851 24.03998704 -0.01495306 30.83835723 -0.00913456 C36.36145656 -0.00460423 41.8845435 -0.00401106 47.40764415 -0.00618219 C48.19585908 -0.00648866 48.984074 -0.00679513 49.79617423 -0.00711088 C51.39764056 -0.00775036 52.99910689 -0.00839879 54.60057322 -0.00905606 C69.57946787 -0.014745 84.55833794 -0.00822193 99.53722856 0.00254467 C112.39212937 0.01149807 125.24699409 0.00991067 138.10189426 0.00070715 C153.04694666 -0.00998787 167.99197766 -0.01421597 182.93703336 -0.00806832 C184.5290029 -0.00743124 186.12097245 -0.00680249 187.712942 -0.00618219 C188.8877712 -0.00571937 188.8877712 -0.00571937 190.08633431 -0.00524719 C195.60895872 -0.00351937 201.13156955 -0.00643682 206.65419185 -0.0111413 C213.37460444 -0.01674074 220.09497029 -0.01525269 226.8153775 -0.00457981 C230.24464887 0.00068661 233.67384221 0.00271693 237.10311306 -0.00387812 C240.81483714 -0.00930755 244.5263387 -0.00253134 248.23804843 0.00748205 C249.3286805 0.00302061 250.41931256 -0.00144083 251.54299408 -0.00603747 C252.53310118 -0.00082198 253.52320828 0.00439352 254.54331863 0.00976706 C255.4003528 0.01009176 256.25738698 0.01041646 257.14039189 0.01075101 C260.44362781 0.38993972 262.59159619 2.43964255 265.32430637 4.26144934 C267.33938995 4.9946873 267.33938995 4.9946873 269.32430637 5.26144934 C269.98430637 4.93144934 270.64430637 4.60144934 271.32430637 4.26144934 C271.32430637 5.25144934 271.32430637 6.24144934 271.32430637 7.26144934 C271.65430637 6.60144934 271.98430637 5.94144934 272.32430637 5.26144934 C274.30430637 5.59144934 276.28430637 5.92144934 278.32430637 6.26144934 C278.32430637 7.25144934 278.32430637 8.24144934 278.32430637 9.26144934 C279.32848606 9.77191809 280.33266574 10.28238684 281.36727512 10.80832434 C290.20634362 15.45320651 297.45120547 20.54410509 304.55477512 27.56223059 C307.04107591 29.9854095 309.58475277 32.13536842 312.32430637 34.26144934 C318.08123812 39.26089006 323.81356248 46.64132358 325.32430637 54.26144934 C326.45211309 56.81781124 327.32597134 58.26311431 329.32430637 60.26144934 C329.44930637 63.38644934 329.44930637 63.38644934 329.32430637 66.26144934 C329.98430637 66.26144934 330.64430637 66.26144934 331.32430637 66.26144934 C332.01720006 69.9857529 332.43575233 73.47228679 332.32430637 77.26144934 C332.98430637 77.26144934 333.64430637 77.26144934 334.32430637 77.26144934 C334.32392665 77.85988903 334.32354693 78.45832872 334.3231557 79.07490295 C334.30080069 114.50592268 334.2836315 149.93694119 334.27324104 185.3679665 C334.27199026 189.61769842 334.27069595 193.86743033 334.26937473 198.11716223 C334.26911242 198.9632439 334.26885011 199.80932557 334.26857985 200.68104608 C334.2642229 214.3991086 334.25633522 228.11716696 334.24715357 241.83522701 C334.23781772 255.90049592 334.2322509 269.96576264 334.23021787 284.03103453 C334.2288425 292.71720903 334.22449116 301.40337176 334.2163899 310.08954263 C334.21112329 316.03769604 334.20950188 321.98584331 334.21080499 327.93399888 C334.2114485 331.3710081 334.21042938 334.80799667 334.20510089 338.24500227 C334.20017129 341.96249184 334.20130536 345.67992979 334.20405185 349.39742041 C334.20113901 350.49564593 334.19822617 351.59387146 334.19522506 352.72537655 C334.19721611 353.71316854 334.19920716 354.70096054 334.20125854 355.71868563 C334.20087882 356.57799273 334.2004991 357.43729984 334.20010787 358.32264656 C334.11041599 360.26771103 334.11041599 360.26771103 335.32430637 361.26144934 C335.48382647 365.40897198 335.38922049 369.23844042 334.32430637 373.26144934 C333.99430637 373.59144934 333.66430637 373.92144934 333.32430637 374.26144934 C333.09897327 376.28944724 332.87663452 378.31819807 332.70321262 380.35129309 C332.32430637 382.26144934 332.32430637 382.26144934 330.32430637 384.26144934 C329.43300223 386.93536174 328.84699103 389.49868756 328.32430637 392.26144934 C327.66430637 392.26144934 327.00430637 392.26144934 326.32430637 392.26144934 C326.25598606 393.08387121 326.18766574 393.90629309 326.11727512 394.75363684 C325.09881426 399.25894646 323.09417413 402.51923408 320.63680637 406.38644934 C320.2146384 407.0889884 319.79247043 407.79152746 319.35750949 408.51535559 C316.5084088 413.0618843 313.89492267 415.49416085 309.32430637 418.26144934 C308.3719904 420.38264062 308.3719904 420.38264062 308.32430637 422.26144934 C307.47739231 422.38713293 307.47739231 422.38713293 306.61336887 422.51535559 C303.63211536 423.48706108 301.99410366 425.07683746 299.69930637 427.19894934 C298.53528293 428.26435949 298.53528293 428.26435949 297.34774387 429.35129309 C295.98782423 430.63507822 294.64670678 431.93904893 293.32430637 433.26144934 C291.08793106 435.49782465 289.2281071 436.09992904 286.32430637 437.26144934 C285.66430637 437.92144934 285.00430637 438.58144934 284.32430637 439.26144934 C282.9965833 439.61647094 281.66198461 439.94600394 280.32430637 440.26144934 C278.5665304 441.01438204 276.81739487 441.78761193 275.07430637 442.57394934 C261.18072942 448.44088208 247.14244337 450.41819953 232.16190708 450.39516211 C230.52360117 450.39856044 230.52360117 450.39856044 228.85219818 450.40202743 C225.20918234 450.40833426 221.56620401 450.4075402 217.92318332 450.40671301 C215.30421006 450.40970658 212.68523723 450.41310957 210.06626499 450.41689062 C203.7000172 450.42517408 197.33377867 450.42794443 190.96752594 450.428503 C185.78860685 450.4289793 180.60969079 450.43103971 175.43077266 450.43420362 C160.72440612 450.44300424 146.01804686 450.44762398 131.31167767 450.44687315 C130.51992961 450.44683319 129.72818156 450.44679324 128.91244113 450.44675207 C128.11971824 450.44671119 127.32699534 450.44667031 126.51025053 450.44662819 C113.67127993 450.44622198 100.8323387 450.45578667 87.99337659 450.46989044 C74.78769706 450.48428173 61.58203183 450.4911591 48.37634426 450.49029666 C40.97153259 450.48996562 33.5667517 450.49267174 26.16194713 450.50347471 C19.19419735 450.51357547 12.22651338 450.51321631 5.25876033 450.50595808 C2.70872898 450.50491558 0.15869352 450.50725517 -2.39133084 450.51331854 C-25.86189972 450.56548915 -25.86189972 450.56548915 -36.04066575 448.59275293 C-38.85209718 448.23927002 -40.94803807 448.55223616 -43.67569363 449.26144934 C-43.67569363 448.60144934 -43.67569363 447.94144934 -43.67569363 447.26144934 C-46.21485538 446.27533783 -48.75669593 445.29744058 -51.30069363 444.32394934 C-52.01354519 444.04615637 -52.72639676 443.7683634 -53.46084988 443.48215246 C-57.52665295 441.93416322 -61.32885738 440.80308982 -65.67569363 440.26144934 C-65.67569363 439.60144934 -65.67569363 438.94144934 -65.67569363 438.26144934 C-68.0153829 436.50599707 -68.0153829 436.50599707 -70.92569363 434.76144934 C-71.90022488 434.15301184 -72.87475613 433.54457434 -73.87881863 432.91769934 C-76.52983868 431.28540662 -76.52983868 431.28540662 -78.85928738 430.24582434 C-80.96470214 429.10482537 -82.01891564 427.89144768 -83.48819363 426.01144934 C-86.90924752 421.85047285 -90.80574995 417.69642118 -95.67569363 415.26144934 C-96.00569363 414.27144934 -96.33569363 413.28144934 -96.67569363 412.26144934 C-97.33569363 411.93144934 -97.99569363 411.60144934 -98.67569363 411.26144934 C-99.00569363 410.27144934 -99.33569363 409.28144934 -99.67569363 408.26144934 C-100.63475613 407.08582434 -100.63475613 407.08582434 -101.61319363 405.88644934 C-103.60074047 403.35684427 -104.6186662 401.26991204 -105.67569363 398.26144934 C-106.00569363 397.60144934 -106.33569363 396.94144934 -106.67569363 396.26144934 C-106.98506863 395.58082434 -107.29444363 394.90019934 -107.61319363 394.19894934 C-108.52548544 392.09938261 -108.52548544 392.09938261 -110.67569363 391.26144934 C-110.67569363 388.95144934 -110.67569363 386.64144934 -110.67569363 384.26144934 C-111.33569363 384.26144934 -111.99569363 384.26144934 -112.67569363 384.26144934 C-112.72467801 383.5511759 -112.77366238 382.84090246 -112.82413113 382.10910559 C-112.89889676 381.19000402 -112.97366238 380.27090246 -113.05069363 379.32394934 C-113.12030301 378.4074259 -113.18991238 377.49090246 -113.26163113 376.54660559 C-113.46659207 375.41545324 -113.46659207 375.41545324 -113.67569363 374.26144934 C-114.33569363 373.93144934 -114.99569363 373.60144934 -115.67569363 373.26144934 C-115.72152907 337.59164865 -115.75674225 301.92185316 -115.77782429 266.25202906 C-115.78032553 262.03536116 -115.78291419 257.81869332 -115.78555691 253.60202551 C-115.78608153 252.7626068 -115.78660615 251.92318809 -115.78714667 251.05833245 C-115.7958356 237.48875133 -115.8115972 223.91918725 -115.82999922 210.34961622 C-115.84874043 196.41310192 -115.85981926 182.4765965 -115.86387062 168.54007012 C-115.86660694 159.94911974 -115.87523129 151.35821755 -115.89152656 142.76728202 C-115.90214561 136.86621235 -115.90528319 130.96516739 -115.90269639 125.06408887 C-115.9014227 121.66580686 -115.90440885 118.26767591 -115.91410458 114.86939764 C-115.94947352 101.82803799 -115.94073968 89.12926797 -113.67569363 76.26144934 C-113.17706323 72.847041 -112.6985461 69.43121056 -112.23819363 66.01144934 C-111.67569363 63.26144934 -111.67569363 63.26144934 -109.67569363 60.26144934 C-108.99301225 58.93624431 -108.32498953 57.60332752 -107.67569363 56.26144934 C-107.34569363 55.60144934 -107.01569363 54.94144934 -106.67569363 54.26144934 C-106.57256863 53.68394934 -106.46944363 53.10644934 -106.36319363 52.51144934 C-105.38340147 49.30485682 -103.67566381 46.92807624 -101.67569363 44.26144934 C-101.01569363 44.26144934 -100.35569363 44.26144934 -99.67569363 44.26144934 C-99.38694363 43.29207434 -99.09819363 42.32269934 -98.80069363 41.32394934 C-97.67569363 38.26144934 -97.67569363 38.26144934 -95.67569363 37.26144934 C-95.34569363 36.27144934 -95.01569363 35.28144934 -94.67569363 34.26144934 C-93.34474546 33.59003352 -92.01087623 32.92440458 -90.67569363 32.26144934 C-88.96252352 30.68555247 -87.29923391 29.05453798 -85.67569363 27.38644934 C-84.83006863 26.52277746 -83.98444363 25.65910559 -83.11319363 24.76926184 C-81.60093242 23.2133777 -80.09884213 21.6474521 -78.61319363 20.06613684 C-76.64036087 18.22853858 -75.11469309 17.37434944 -72.67569363 16.26144934 C-71.48956976 15.60557197 -70.30776334 14.94186407 -69.12881863 14.27316809 C-46.55890568 1.69583442 -25.51437712 -0.0495929 0 0 Z M253.32430637 1.26144934 C253.32430637 1.59144934 253.32430637 1.92144934 253.32430637 2.26144934 C254.97430637 2.26144934 256.62430637 2.26144934 258.32430637 2.26144934 C258.32430637 1.93144934 258.32430637 1.60144934 258.32430637 1.26144934 C256.67430637 1.26144934 255.02430637 1.26144934 253.32430637 1.26144934 Z M327.32430637 61.26144934 C328.32430637 63.26144934 328.32430637 63.26144934 328.32430637 63.26144934 Z M-110.67569363 63.26144934 C-109.67569363 65.26144934 -109.67569363 65.26144934 -109.67569363 65.26144934 Z M-111.67569363 66.26144934 C-110.67569363 68.26144934 -110.67569363 68.26144934 -110.67569363 68.26144934 Z M330.32430637 69.26144934 C331.32430637 72.26144934 331.32430637 72.26144934 331.32430637 72.26144934 Z M333.32430637 362.26144934 C333.32430637 364.24144934 333.32430637 366.22144934 333.32430637 368.26144934 C333.65430637 368.26144934 333.98430637 368.26144934 334.32430637 368.26144934 C334.32430637 366.28144934 334.32430637 364.30144934 334.32430637 362.26144934 C333.99430637 362.26144934 333.66430637 362.26144934 333.32430637 362.26144934 Z M330.32430637 378.26144934 C331.32430637 381.26144934 331.32430637 381.26144934 331.32430637 381.26144934 Z M-109.67569363 388.26144934 C-108.67569363 390.26144934 -108.67569363 390.26144934 -108.67569363 390.26144934 Z " fill="#192F39" transform="translate(146.67569363117218,30.738550662994385)"/>
<path d="M0 0 C1.1803331 -0.01286545 2.3606662 -0.0257309 3.57676697 -0.03898621 C5.51402397 -0.04469635 5.51402397 -0.04469635 7.49041748 -0.05052185 C8.86717842 -0.06142031 10.24393342 -0.07309238 11.62068176 -0.08547974 C15.35845368 -0.11596264 19.09616407 -0.13299787 22.83403492 -0.14569592 C25.17122388 -0.15378707 27.50839527 -0.1639679 29.84557343 -0.17471123 C37.16369594 -0.20742503 44.48177564 -0.23132644 51.79996133 -0.24352509 C60.23736846 -0.25777397 68.67393827 -0.30162911 77.11106801 -0.37102658 C83.63946915 -0.42286586 90.16763261 -0.44770276 96.69623637 -0.45234722 C100.59241493 -0.45574023 104.48774642 -0.47051538 108.38370514 -0.51362801 C112.05143649 -0.55350477 115.71773413 -0.55973192 119.38561821 -0.54072762 C121.36417527 -0.53886673 123.34267146 -0.57159558 125.32093811 -0.60554504 C131.32011712 -0.54254843 135.28172257 -0.32678858 139.93835449 3.6769104 C141.06851325 4.84645198 142.16794928 6.0472639 143.21990967 7.28761292 C144.3549292 8.57345276 144.3549292 8.57345276 145.51287842 9.88526917 C146.13807373 10.6986676 146.76326904 11.51206604 147.40740967 12.35011292 C150.99180746 16.86311118 154.765146 21.09652244 158.71990967 25.28761292 C163.38433386 30.24087673 167.77903782 35.31952969 172.03631592 40.63136292 C175.91331017 45.34756344 180.09255098 49.79125196 184.21990967 54.28761292 C185.51791987 55.71938753 186.81030175 57.15630145 188.09490967 58.60011292 C188.60795654 59.17374573 189.12100342 59.74737854 189.64959717 60.33839417 C194.32381361 66.14046881 195.80903216 69.70790461 195.72784424 77.0171051 C195.7340842 77.88371136 195.74032416 78.75031761 195.74675322 79.64318466 C195.76267961 82.54056434 195.75008033 85.43710233 195.73748779 88.33448792 C195.74290906 90.41428619 195.75003175 92.49408063 195.75872803 94.5738678 C195.77696361 100.21845922 195.76989274 105.8627582 195.75721169 111.50735474 C195.74708532 117.41425872 195.75647636 123.32113764 195.76275635 129.2280426 C195.77003379 139.14768469 195.76044243 149.06720766 195.74139404 158.98683167 C195.7196252 170.4556063 195.7266765 181.92409649 195.74869967 193.39286423 C195.76685083 203.23930674 195.76941335 213.08566362 195.75894499 222.93211746 C195.75270853 228.81315524 195.75187872 234.69405931 195.76509094 240.5750885 C195.77664458 246.10406816 195.76863225 251.63268106 195.74551392 257.16162109 C195.74022428 259.19092195 195.74174494 261.22025366 195.75056458 263.24954224 C195.76149341 266.01948527 195.74778856 268.78825263 195.72784424 271.55812073 C195.73676713 272.361432 195.74569001 273.16474327 195.75488329 273.99239731 C195.68241474 279.1802226 194.71975098 282.21796449 191.21990967 286.28761292 C187.72044646 288.98617143 183.61688901 288.58122347 179.37631226 288.57522583 C178.58083524 288.58187364 177.78535823 288.58852145 176.96577585 288.59537071 C174.29736032 288.61507268 171.62911252 288.62044336 168.96063232 288.62574768 C167.04861512 288.63664194 165.1366022 288.64831355 163.22459412 288.66070557 C158.02832186 288.69122263 152.83209391 288.70823107 147.63575029 288.72092175 C144.39000683 288.72900414 141.14427613 288.73918451 137.8985405 288.74993706 C127.74522017 288.78265589 117.59193079 288.80655806 107.4385649 288.81875092 C95.71399296 288.83301386 83.99002214 288.87691413 72.26564944 288.94625241 C63.20481958 288.9979933 54.14416093 289.02292087 45.08318555 289.02757305 C39.67027998 289.03097461 34.25798235 289.04588671 28.84523392 289.08885384 C23.7544022 289.12855853 18.66460408 289.13503046 13.57366371 289.11595345 C11.70558211 289.11468562 9.83744813 289.12539386 7.96951485 289.14896774 C5.41759595 289.17933522 2.86938283 289.16647418 0.31747437 289.14285278 C-0.79031972 289.17139126 -0.79031972 289.17139126 -1.92049348 289.20050627 C-5.97300778 289.11124257 -8.41444891 288.2234414 -11.2394104 285.43480015 C-14.80507766 280.65115895 -14.61023118 275.8511318 -14.52853394 270.07737732 C-14.53648275 268.95603083 -14.54443156 267.83468434 -14.55262125 266.67935765 C-14.57185512 262.92569997 -14.54824097 259.17355226 -14.52471924 255.41993713 C-14.52957562 252.72750293 -14.53678199 250.03516833 -14.54684448 247.34275818 C-14.5657984 240.79193947 -14.55264151 234.2415621 -14.5283186 227.69077621 C-14.50104842 220.06152703 -14.50435685 212.43238244 -14.50858526 204.80309691 C-14.51496157 191.19156248 -14.49164811 177.58023756 -14.45245361 163.96876526 C-14.41443167 150.76101809 -14.40028279 137.55351636 -14.41143799 124.34571838 C-14.4235522 109.95990424 -14.42320317 95.57419795 -14.40046632 81.18839276 C-14.39805175 79.65469496 -14.39563978 78.12099715 -14.39323044 76.58729935 C-14.39202336 75.83270161 -14.39081628 75.07810387 -14.38957263 74.30063953 C-14.38181342 68.98241036 -14.38260184 63.66422133 -14.38640213 58.34598923 C-14.39064525 51.86656918 -14.38020386 45.3873641 -14.35117503 38.90800463 C-14.33668318 35.60198732 -14.33067504 32.29634708 -14.33766174 28.99029541 C-14.34408527 25.40780825 -14.32599447 21.82627071 -14.30148315 18.24388123 C-14.3090418 17.19710044 -14.31660045 16.15031965 -14.32438815 15.07181823 C-14.27156788 10.72421381 -14.21617413 8.03614002 -11.99750328 4.22784615 C-7.98299701 0.71515877 -5.32744846 0.03764642 0 0 Z " fill="#1A2F3B" transform="translate(165.78009033203125,111.71238708496094)"/>
<path d="M0 0 C1.1803331 -0.01286545 2.3606662 -0.0257309 3.57676697 -0.03898621 C5.51402397 -0.04469635 5.51402397 -0.04469635 7.49041748 -0.05052185 C8.86717842 -0.06142031 10.24393342 -0.07309238 11.62068176 -0.08547974 C15.35845368 -0.11596264 19.09616407 -0.13299787 22.83403492 -0.14569592 C25.17122388 -0.15378707 27.50839527 -0.1639679 29.84557343 -0.17471123 C37.16369594 -0.20742503 44.48177564 -0.23132644 51.79996133 -0.24352509 C60.23736846 -0.25777397 68.67393827 -0.30162911 77.11106801 -0.37102658 C83.63946915 -0.42286586 90.16763261 -0.44770276 96.69623637 -0.45234722 C100.59241493 -0.45574023 104.48774642 -0.47051538 108.38370514 -0.51362801 C112.05143649 -0.55350477 115.71773413 -0.55973192 119.38561821 -0.54072762 C121.36417527 -0.53886673 123.34267146 -0.57159558 125.32093811 -0.60554504 C131.32011712 -0.54254843 135.28172257 -0.32678858 139.93835449 3.6769104 C141.06851325 4.84645198 142.16794928 6.0472639 143.21990967 7.28761292 C144.3549292 8.57345276 144.3549292 8.57345276 145.51287842 9.88526917 C146.13807373 10.6986676 146.76326904 11.51206604 147.40740967 12.35011292 C150.99180746 16.86311118 154.765146 21.09652244 158.71990967 25.28761292 C163.38433386 30.24087673 167.77903782 35.31952969 172.03631592 40.63136292 C175.91331017 45.34756344 180.09255098 49.79125196 184.21990967 54.28761292 C185.51791987 55.71938753 186.81030175 57.15630145 188.09490967 58.60011292 C188.60795654 59.17374573 189.12100342 59.74737854 189.64959717 60.33839417 C194.32381361 66.14046881 195.80903216 69.70790461 195.72784424 77.0171051 C195.7340842 77.88371136 195.74032416 78.75031761 195.74675322 79.64318466 C195.76267961 82.54056434 195.75008033 85.43710233 195.73748779 88.33448792 C195.74290906 90.41428619 195.75003175 92.49408063 195.75872803 94.5738678 C195.77696361 100.21845922 195.76989274 105.8627582 195.75721169 111.50735474 C195.74708532 117.41425872 195.75647636 123.32113764 195.76275635 129.2280426 C195.77003379 139.14768469 195.76044243 149.06720766 195.74139404 158.98683167 C195.7196252 170.4556063 195.7266765 181.92409649 195.74869967 193.39286423 C195.76685083 203.23930674 195.76941335 213.08566362 195.75894499 222.93211746 C195.75270853 228.81315524 195.75187872 234.69405931 195.76509094 240.5750885 C195.77664458 246.10406816 195.76863225 251.63268106 195.74551392 257.16162109 C195.74022428 259.19092195 195.74174494 261.22025366 195.75056458 263.24954224 C195.76149341 266.01948527 195.74778856 268.78825263 195.72784424 271.55812073 C195.73676713 272.361432 195.74569001 273.16474327 195.75488329 273.99239731 C195.68241474 279.1802226 194.71975098 282.21796449 191.21990967 286.28761292 C187.72044646 288.98617143 183.61688901 288.58122347 179.37631226 288.57522583 C178.58083524 288.58187364 177.78535823 288.58852145 176.96577585 288.59537071 C174.29736032 288.61507268 171.62911252 288.62044336 168.96063232 288.62574768 C167.04861512 288.63664194 165.1366022 288.64831355 163.22459412 288.66070557 C158.02832186 288.69122263 152.83209391 288.70823107 147.63575029 288.72092175 C144.39000683 288.72900414 141.14427613 288.73918451 137.8985405 288.74993706 C127.74522017 288.78265589 117.59193079 288.80655806 107.4385649 288.81875092 C95.71399296 288.83301386 83.99002214 288.87691413 72.26564944 288.94625241 C63.20481958 288.9979933 54.14416093 289.02292087 45.08318555 289.02757305 C39.67027998 289.03097461 34.25798235 289.04588671 28.84523392 289.08885384 C23.7544022 289.12855853 18.66460408 289.13503046 13.57366371 289.11595345 C11.70558211 289.11468562 9.83744813 289.12539386 7.96951485 289.14896774 C5.41759595 289.17933522 2.86938283 289.16647418 0.31747437 289.14285278 C-0.79031972 289.17139126 -0.79031972 289.17139126 -1.92049348 289.20050627 C-5.97300778 289.11124257 -8.41444891 288.2234414 -11.2394104 285.43480015 C-14.80507766 280.65115895 -14.61023118 275.8511318 -14.52853394 270.07737732 C-14.53648275 268.95603083 -14.54443156 267.83468434 -14.55262125 266.67935765 C-14.57185512 262.92569997 -14.54824097 259.17355226 -14.52471924 255.41993713 C-14.52957562 252.72750293 -14.53678199 250.03516833 -14.54684448 247.34275818 C-14.5657984 240.79193947 -14.55264151 234.2415621 -14.5283186 227.69077621 C-14.50104842 220.06152703 -14.50435685 212.43238244 -14.50858526 204.80309691 C-14.51496157 191.19156248 -14.49164811 177.58023756 -14.45245361 163.96876526 C-14.41443167 150.76101809 -14.40028279 137.55351636 -14.41143799 124.34571838 C-14.4235522 109.95990424 -14.42320317 95.57419795 -14.40046632 81.18839276 C-14.39805175 79.65469496 -14.39563978 78.12099715 -14.39323044 76.58729935 C-14.39202336 75.83270161 -14.39081628 75.07810387 -14.38957263 74.30063953 C-14.38181342 68.98241036 -14.38260184 63.66422133 -14.38640213 58.34598923 C-14.39064525 51.86656918 -14.38020386 45.3873641 -14.35117503 38.90800463 C-14.33668318 35.60198732 -14.33067504 32.29634708 -14.33766174 28.99029541 C-14.34408527 25.40780825 -14.32599447 21.82627071 -14.30148315 18.24388123 C-14.3090418 17.19710044 -14.31660045 16.15031965 -14.32438815 15.07181823 C-14.27156788 10.72421381 -14.21617413 8.03614002 -11.99750328 4.22784615 C-7.98299701 0.71515877 -5.32744846 0.03764642 0 0 Z M-2.78009033 11.28761292 C-2.78009033 71.01761292 -2.78009033 130.74761292 -2.78009033 192.28761292 C58.59990967 192.28761292 119.97990967 192.28761292 183.21990967 192.28761292 C183.21990967 153.67761292 183.21990967 115.06761292 183.21990967 75.28761292 C166.05990967 74.95761292 148.89990967 74.62761292 131.21990967 74.28761292 C116.35384092 59.42154417 128.56451576 32.30858451 128.21990967 11.28761292 C84.98990967 11.28761292 41.75990967 11.28761292 -2.78009033 11.28761292 Z " fill="#000101" transform="translate(165.78009033203125,111.71238708496094)"/>
<path d="M0 0 C4.09275831 3.63800739 6.01240772 7.71506997 6.57128906 13.08984375 C6.64266325 16.56807897 6.59935614 20.02253507 6.5 23.5 C6.48195312 24.70398438 6.46390625 25.90796875 6.4453125 27.1484375 C6.39846554 30.09979605 6.33288005 33.04947036 6.25 36 C7.18247559 36.44243042 7.18247559 36.44243042 8.13378906 36.89379883 C10.59005984 38.17775855 12.0928251 39.681814 14 41.6875 C17.911562 45.69219443 21.99784525 49.3632887 26.25 53 C27.29212585 53.90572194 28.33375285 54.81201803 29.375 55.71875 C36.49262878 61.8949791 43.74532817 67.84904966 51.19140625 73.625 C54.25 76 54.25 76 56.43603516 78.11694336 C60.0675878 80.54711562 63.11063746 80.55080261 67.33203125 80.50390625 C68.10504074 80.51332748 68.87805023 80.52274872 69.67448425 80.53245544 C72.13742723 80.56103097 74.59940504 80.56418788 77.0625 80.5625 C79.51474264 80.56612436 81.96628255 80.57586064 84.41838074 80.60325623 C85.93986791 80.61985499 87.46158488 80.62307191 88.98310852 80.61024475 C96.76786716 80.68636011 103.06821858 83.25584217 109.25 88 C112.63948365 91.77685321 112.76788685 94.53822195 112.59375 99.46484375 C111.96996981 104.06522268 110.32490485 107.22976472 106.70703125 110.31640625 C102.48052216 113.09216852 98.24826967 114.02505349 93.25 113 C84.19067838 109.6736501 75.59489103 103.63390886 68.2421875 97.484375 C62.4324295 92.66060726 58.52438483 89.86459517 50.8515625 90.4921875 C49.66304688 90.65976563 48.47453125 90.82734375 47.25 91 C45.57035026 91.211238 43.89065928 91.42214817 42.2109375 91.6328125 C36.8757532 92.33241505 31.56248837 93.1465437 26.25 94 C25.12464844 94.17789063 23.99929687 94.35578125 22.83984375 94.5390625 C11.29243562 96.49962964 -0.24176093 99.74588047 -10.75 105 C-11.42338808 107.16719222 -12.0137383 109.36044773 -12.5625 111.5625 C-14.18592743 117.50098546 -16.0661669 122.10014432 -19.75 127 C-20.348125 127.9075 -20.94625 128.815 -21.5625 129.75 C-25.34855176 133.64422467 -29.61401124 135.62306081 -34.9375 136.5625 C-38.93372101 135.7632558 -40.33564715 134.24213097 -42.75 131 C-44.14480661 126.3797031 -43.99217899 122.65000842 -42.07421875 118.171875 C-36.94229039 109.75490695 -28.36318595 103.51594125 -19.75 99 C-19.09 99 -18.43 99 -17.75 99 C-17.59144531 98.08863281 -17.43289062 97.17726563 -17.26953125 96.23828125 C-14.45538723 80.61278546 -10.90434315 65.14056556 -6.27392578 49.94775391 C-4.97199746 45.51112629 -4.27665733 41.61648323 -4.75 37 C-5.99233972 34.782983 -5.99233972 34.782983 -7.875 33.0625 C-13.89160039 26.76520628 -19.27438771 20.99392906 -20.125 12.0625 C-20.00331017 7.76279273 -18.57525163 5.28340054 -15.75 2 C-10.96382656 -1.98847787 -5.68610498 -2.06767454 0 0 Z " fill="#000203" transform="translate(221.75,152)"/>
<path d="M0 0 C5.67839886 5.1975667 9.7707002 12.21242832 10.37890625 19.92578125 C10.86416874 32.25867581 9.26329887 41.47158763 0.9375 51.08203125 C-8.74548469 60.17874147 -22.13722153 62.29220975 -34.9375 62.0234375 C-35.94296875 62.01828125 -36.9484375 62.013125 -37.984375 62.0078125 C-42.57822561 61.95907138 -46.51731269 61.68247496 -51.0625 60.7734375 C-51.0625 38.3334375 -51.0625 15.8934375 -51.0625 -7.2265625 C-33.6189485 -9.40700644 -14.9623148 -10.83667653 0 0 Z " fill="#1A2F35" transform="translate(280.0625,325.2265625)"/>
<path d="M0 0 C0.89009766 -0.020625 1.78019531 -0.04125 2.69726562 -0.0625 C11.3640818 -0.11314611 18.6710516 1.80094778 25.5625 7.25 C30.69292411 12.93506455 30.91000131 17.5042282 30.84375 24.94921875 C30.34230634 30.83421727 27.96279146 34.38294472 24.5 39 C16.21366696 45.3469785 7.68594409 45.68541695 -2.4375 45.25 C-2.4375 53.17 -2.4375 61.09 -2.4375 69.25 C-7.7175 69.25 -12.9975 69.25 -18.4375 69.25 C-18.4375 46.81 -18.4375 24.37 -18.4375 1.25 C-12.13988693 0.46279837 -6.29735384 0.03632216 0 0 Z " fill="#192E37" transform="translate(188.4375,316.75)"/>
<path d="M0 0 C13.86 0 27.72 0 42 0 C42 3.96 42 7.92 42 12 C33.42 12 24.84 12 16 12 C16 17.28 16 22.56 16 28 C23.92 28 31.84 28 40 28 C40 31.96 40 35.92 40 40 C32.08 40 24.16 40 16 40 C16 49.24 16 58.48 16 68 C10.72 68 5.44 68 0 68 C0 45.56 0 23.12 0 0 Z " fill="#1A3034" transform="translate(300,318)"/>
<path d="M0 0 C2.77535327 1.27358252 4.86878371 2.60792242 7.06640625 4.72265625 C7.62859863 5.25656982 8.19079102 5.7904834 8.77001953 6.34057617 C9.36153809 6.90881104 9.95305664 7.4770459 10.5625 8.0625 C16.49538606 13.6676662 22.63176169 18.89270916 29 24 C31.17452996 25.78225919 33.33836778 27.57713231 35.5 29.375 C36.4796875 30.18710938 37.459375 30.99921875 38.46875 31.8359375 C40.41353616 33.49860962 42.21043925 35.17983177 44 37 C43.21052979 37.09498779 42.42105957 37.18997559 41.60766602 37.2878418 C26.71002339 39.11520788 12.2340562 41.04039854 -2 46 C-3.85407932 46.60443466 -5.70822966 47.20865159 -7.5625 47.8125 C-9.2640625 48.4003125 -9.2640625 48.4003125 -11 49 C-10.29373668 41.40289728 -8.45317026 34.14577971 -6.625 26.75 C-6.32078125 25.50347656 -6.0165625 24.25695312 -5.703125 22.97265625 C-3.82909969 15.30837324 -1.92113205 7.65259802 0 0 Z " fill="#1A2E3A" transform="translate(225,197)"/>
<path d="M0 0 C16.44736842 0 16.44736842 0 22.8125 5.375 C29.02233034 12.82679641 28.99549444 19.48239376 28.28857422 28.86230469 C27.46521292 34.96158684 24.56825227 39.01005986 19.796875 42.70703125 C12.76390995 46.82471885 8.74232653 46 0 46 C0 30.82 0 15.64 0 0 Z " fill="#000102" transform="translate(245,329)"/>
<path d="M0 0 C11.73477957 -0.57242827 11.73477957 -0.57242827 17 4 C18.55985209 5.55985209 18.24452344 7.08906098 18.3125 9.25 C18.27924877 12.73583755 18.0817501 13.86750846 16.1875 16.9375 C10.84971236 21.9702712 7.0761333 21.16649725 0 21 C0 14.07 0 7.14 0 0 Z " fill="#000102" transform="translate(186,329)"/>
<path d="M0 0 C0 0.33 0 0.66 0 1 C-6.44105204 1.96147079 -12.70576 2.13870416 -19.21228027 2.12025452 C-20.87637208 2.12153615 -20.87637208 2.12153615 -22.5740819 2.12284368 C-26.2805243 2.12448694 -29.98692116 2.11899601 -33.69335938 2.11352539 C-36.35460512 2.11324324 -39.0158481 2.11335779 -41.67709351 2.1139679 C-47.40098032 2.11449123 -53.12485569 2.11136435 -58.84873962 2.10573006 C-67.12442655 2.09758922 -75.40010798 2.09499719 -83.67579848 2.09374207 C-97.10385576 2.09155561 -110.53190696 2.08490652 -123.95996094 2.07543945 C-137.00097625 2.06625484 -150.04198991 2.05917914 -163.08300781 2.05493164 C-163.88739483 2.05466892 -164.69178185 2.05440619 -165.52054423 2.05413551 C-169.55607838 2.05283043 -173.59161255 2.05156673 -177.62714672 2.05032361 C-211.0847689 2.03996363 -244.5423837 2.02235636 -278 2 C-278 1.67 -278 1.34 -278 1 C-243.88418648 0.87240935 -209.76837231 0.74499535 -175.65255726 0.61781773 C-171.62343335 0.60279773 -167.59430945 0.58777627 -163.56518555 0.57275391 C-162.76307097 0.56976329 -161.96095639 0.56677268 -161.13453531 0.56369144 C-148.15259666 0.51528592 -135.17065845 0.46676217 -122.18872041 0.41819459 C-108.8647012 0.36834987 -95.54068152 0.3186325 -82.21666139 0.26903296 C-73.99729872 0.23843183 -65.77793643 0.20773178 -57.55857461 0.17690456 C-51.91966302 0.155765 -46.28075097 0.13474931 -40.64183856 0.11383021 C-37.39017041 0.10176362 -34.13850256 0.08962481 -30.8868351 0.07737541 C-27.35608093 0.06408326 -23.82532605 0.05099811 -20.29457092 0.03796387 C-19.2741214 0.03407292 -18.25367189 0.03018197 -17.20229965 0.02617311 C-11.46815243 0.00525658 -5.73418576 -0.00358604 0 0 Z " fill="#0A1F21" transform="translate(399,481)"/>
<path d="M0 0 C0.33 0 0.66 0 1 0 C1 89.76 1 179.52 1 272 C0.67 272 0.34 272 0 272 C0 182.24 0 92.48 0 0 Z " fill="#071C1E" transform="translate(482,120)"/>
<path d="M0 0 C0.33 0 0.66 0 1 0 C1 89.43 1 178.86 1 271 C0.34 270.67 -0.32 270.34 -1 270 C-0.67 180.9 -0.34 91.8 0 0 Z " fill="#1A2E3F" transform="translate(29,120)"/>
<path d="M0 0 C89.76 0 179.52 0 272 0 C272 0.33 272 0.66 272 1 C182.24 1 92.48 1 0 1 C0 0.67 0 0.34 0 0 Z " fill="#1B2E40" transform="translate(120,29)"/>
<path d="M0 0 C3.16648655 -0.08820927 6.33265092 -0.1407905 9.5 -0.1875 C10.386875 -0.21263672 11.27375 -0.23777344 12.1875 -0.26367188 C18.17349767 -0.32969391 22.58220681 0.38262018 28 3 C30 6 30 6 29.75 9.0625 C29 12 29 12 27 14 C20.52820205 14.68087991 17.05576735 13.50090769 11.8125 9.8125 C11.22275391 9.42513672 10.63300781 9.03777344 10.02539062 8.63867188 C6.25244082 6.09958997 3.11847931 3.30641026 0 0 Z " fill="#1A2E35" transform="translate(296,242)"/>
<path d="M0 0 C2.625 0.375 2.625 0.375 4.27734375 2.47265625 C5.89221592 5.95048241 5.92811509 8.37220212 5.8125 12.1875 C5.78542969 13.34894531 5.75835937 14.51039063 5.73046875 15.70703125 C5.69566406 16.58746094 5.66085938 17.46789062 5.625 18.375 C4.965 18.375 4.305 18.375 3.625 18.375 C2.1875 16.765625 2.1875 16.765625 0.625 14.625 C0.109375 13.92890625 -0.40625 13.2328125 -0.9375 12.515625 C-4.47627128 7.24593299 -4.47627128 7.24593299 -4.0625 3.6875 C-3.11231343 0.49141791 -3.11231343 0.49141791 0 0 Z " fill="#192935" transform="translate(214.375,159.625)"/>
<path d="M0 0 C1 3 1 3 -0.07421875 5.375 C-0.60660156 6.24125 -1.13898438 7.1075 -1.6875 8 C-2.20699219 8.86625 -2.72648438 9.7325 -3.26171875 10.625 C-5.00683256 13.00933527 -6.4733532 14.48500862 -9 16 C-9.99 16 -10.98 16 -12 16 C-12.5 13.4375 -12.5 13.4375 -12 10 C-8.52782082 6.08139779 -4.18021313 3.11633006 0 0 Z " fill="#1A2931" transform="translate(199,263)"/>
<path d="M0 0 C0.66 0.33 1.32 0.66 2 1 C1.38511719 1.59748047 1.38511719 1.59748047 0.7578125 2.20703125 C0.21898437 2.73683594 -0.31984375 3.26664062 -0.875 3.8125 C-1.40867188 4.33457031 -1.94234375 4.85664062 -2.4921875 5.39453125 C-4.20776561 7.13259904 -4.20776561 7.13259904 -6 10 C-5.72510809 5.96825194 -5.46508424 4.43105369 -2.4375 1.625 C-1.633125 1.08875 -0.82875 0.5525 0 0 Z " fill="#03060D" transform="translate(158,113)"/>
<path d="M0 0 C1.875 0.1875 1.875 0.1875 4 1 C5.25 3.5625 5.25 3.5625 6 6 C4.125 5.8125 4.125 5.8125 2 5 C0.75 2.4375 0.75 2.4375 0 0 Z " fill="#162A31" transform="translate(462,72)"/>
<path d="M0 0 C0 0.33 0 0.66 0 1 C-4.455 1.495 -4.455 1.495 -9 2 C-5.5647952 -0.29013653 -4.014669 -0.17842973 0 0 Z " fill="#1C2D43" transform="translate(112,31)"/>
<path d="M0 0 C2.97 0 5.94 0 9 0 C9 0.33 9 0.66 9 1 C6.03 1 3.06 1 0 1 C0 0.67 0 0.34 0 0 Z " fill="#192D32" transform="translate(112,481)"/>
<path d="M0 0 C0.33 0 0.66 0 1 0 C1 1.98 1 3.96 1 6 C-0.0625 4.125 -0.0625 4.125 -1 2 C-0.67 1.34 -0.34 0.68 0 0 Z " fill="#1B2C43" transform="translate(30,114)"/>
<path d="M0 0 C2.64 0 5.28 0 8 0 C8 0.33 8 0.66 8 1 C5.36 1 2.72 1 0 1 C0 0.67 0 0.34 0 0 Z " fill="#1C313E" transform="translate(392,30)"/>
<path d="M0 0 C2.64 0 5.28 0 8 0 C8 0.33 8 0.66 8 1 C5.36 1 2.72 1 0 1 C0 0.67 0 0.34 0 0 Z " fill="#1E2F45" transform="translate(112,30)"/>
<path d="M0 0 C0.33 0 0.66 0 1 0 C1 2.31 1 4.62 1 7 C0.67 7 0.34 7 0 7 C0 4.69 0 2.38 0 0 Z " fill="#182D3A" transform="translate(30,391)"/>
<path d="M0 0 C0.66 0.33 1.32 0.66 2 1 C0.35 1.33 -1.3 1.66 -3 2 C-2.01 1.34 -1.02 0.68 0 0 Z " fill="#19302D" transform="translate(421,474)"/>
<path d="M0 0 C0.33 0 0.66 0 1 0 C1 1.98 1 3.96 1 6 C0.67 6 0.34 6 0 6 C0 4.02 0 2.04 0 0 Z " fill="#192C32" transform="translate(481,114)"/>
<path d="M0 0 C1.65 0 3.3 0 5 0 C5 0.33 5 0.66 5 1 C3.35 1 1.7 1 0 1 C0 0.67 0 0.34 0 0 Z " fill="#172E2B" transform="translate(399,480)"/>
<path d="M0 0 C0.66 0.33 1.32 0.66 2 1 C0.68 1.33 -0.64 1.66 -2 2 C-1.34 1.34 -0.68 0.68 0 0 Z " fill="#18302D" transform="translate(427,471)"/>
<path d="M0 0 C0.33 0 0.66 0 1 0 C1 1.65 1 3.3 1 5 C0.67 5 0.34 5 0 5 C0 3.35 0 1.7 0 0 Z " fill="#1A2B41" transform="translate(31,107)"/>
<path d="M0 0 C1.32 0.33 2.64 0.66 4 1 C3.01 1.33 2.02 1.66 1 2 C0.67 1.34 0.34 0.68 0 0 Z " fill="#1B2A3F" transform="translate(77,42)"/>
<path d="M0 0 C4 1 4 1 4 1 Z " fill="#192C33" transform="translate(108,480)"/>
<path d="M0 0 C4 1 4 1 4 1 Z " fill="#182F2C" transform="translate(405,479)"/>
<path d="M0 0 C4 1 4 1 4 1 Z " fill="#192D33" transform="translate(99,478)"/>
<path d="M0 0 C1.485 0.99 1.485 0.99 3 2 C2.01 2 1.02 2 0 2 C0 1.34 0 0.68 0 0 Z " fill="#192C34" transform="translate(78,468)"/>
<path d="M0 0 C1 4 1 4 1 4 Z " fill="#192D39" transform="translate(32,405)"/>
<path d="M0 0 C1 4 1 4 1 4 Z " fill="#182C32" transform="translate(479,103)"/>
<path d="M0 0 C0.99 0 1.98 0 3 0 C2.67 0.66 2.34 1.32 2 2 C1.34 1.34 0.68 0.68 0 0 Z " fill="#1A2C36" transform="translate(444,51)"/>
<path d="M0 0 C4 1 4 1 4 1 Z " fill="#192C37" transform="translate(409,33)"/>
<path d="M0 0 C4 1 4 1 4 1 Z " fill="#18293E" transform="translate(99,33)"/>
<path d="M0 0 C3 1 3 1 3 1 Z " fill="#182F2C" transform="translate(409,478)"/>
<path d="M0 0 C3 1 3 1 3 1 Z " fill="#192C33" transform="translate(91,475)"/>
<path d="M0 0 C0.99 0.495 0.99 0.495 2 1 C1.01 1.495 1.01 1.495 0 2 C0 1.34 0 0.68 0 0 Z " fill="#1A2C33" transform="translate(87,473)"/>
<path d="" fill="#182F2D" transform="translate(0,0)"/>
<path d="" fill="#1A2B35" transform="translate(0,0)"/>
<path d="" fill="#192B35" transform="translate(0,0)"/>
<path d="" fill="#192A40" transform="translate(0,0)"/>
<path d="" fill="#1A2A3D" transform="translate(0,0)"/>
<path d="" fill="#192C33" transform="translate(0,0)"/>
<path d="M0 0 C0.66 0.66 1.32 1.32 2 2 C1.34 2 0.68 2 0 2 C0 1.34 0 0.68 0 0 Z " fill="#19293F" transform="translate(87,37)"/>
<path d="M0 0 C3 1 3 1 3 1 Z " fill="#1A2A3F" transform="translate(91,36)"/>
<path d="M0 0 C2 1 2 1 2 1 Z " fill="#182F2C" transform="translate(413,477)"/>
<path d="M0 0 C2 1 2 1 2 1 Z " fill="#1B2D33" transform="translate(97,477)"/>
<path d="M0 0 C2 1 2 1 2 1 Z " fill="#1A2D34" transform="translate(94,476)"/>
<path d="" fill="#193430" transform="translate(0,0)"/>
<path d="M0 0 C2 1 2 1 2 1 Z " fill="#192C33" transform="translate(89,474)"/>
<path d="M0 0 C2 1 2 1 2 1 Z " fill="#19312E" transform="translate(423,473)"/>
<path d="M0 0 C2 1 2 1 2 1 Z " fill="#1B2E34" transform="translate(85,472)"/>
<path d="M0 0 C2 1 2 1 2 1 Z " fill="#19312E" transform="translate(431,469)"/>
<path d="M0 0 C2 1 2 1 2 1 Z " fill="#1B2D35" transform="translate(76,467)"/>
<path d="M0 0 C2 1 2 1 2 1 Z " fill="#19312E" transform="translate(436,466)"/>
<path d="M0 0 C2 1 2 1 2 1 Z " fill="#1A2D34" transform="translate(74,466)"/>
<path d="M0 0 C2 1 2 1 2 1 Z " fill="#19312E" transform="translate(440,463)"/>
<path d="M0 0 C2 1 2 1 2 1 Z " fill="#192C34" transform="translate(70,463)"/>
<path d="M0 0 C2 1 2 1 2 1 Z " fill="#1A322F" transform="translate(444,460)"/>
<path d="" fill="#1A2B35" transform="translate(0,0)"/>
<path d="" fill="#19302D" transform="translate(0,0)"/>
<path d="" fill="#1B2C36" transform="translate(0,0)"/>
<path d="" fill="#193431" transform="translate(0,0)"/>
<path d="" fill="#1A2C35" transform="translate(0,0)"/>
<path d="" fill="#19283D" transform="translate(0,0)"/>
<path d="" fill="#192D34" transform="translate(0,0)"/>
<path d="" fill="#19283B" transform="translate(0,0)"/>
<path d="" fill="#1B293C" transform="translate(0,0)"/>
<path d="" fill="#182E37" transform="translate(0,0)"/>
<path d="M0 0 C2 1 2 1 2 1 Z " fill="#182F3A" transform="translate(453,56)"/>
<path d="M0 0 C2 1 2 1 2 1 Z " fill="#1A293D" transform="translate(66,51)"/>
<path d="M0 0 C2 1 2 1 2 1 Z " fill="#1A2C36" transform="translate(436,45)"/>
<path d="M0 0 C2 1 2 1 2 1 Z " fill="#1B2A3E" transform="translate(74,45)"/>
<path d="M0 0 C2 1 2 1 2 1 Z " fill="#1B2D38" transform="translate(434,44)"/>
<path d="M0 0 C2 1 2 1 2 1 Z " fill="#1D2B3D" transform="translate(76,44)"/>
<path d="M0 0 C2 1 2 1 2 1 Z " fill="#1C2D37" transform="translate(431,42)"/>
<path d="M0 0 C2 1 2 1 2 1 Z " fill="#1A2C36" transform="translate(429,41)"/>
<path d="M0 0 C2 1 2 1 2 1 Z " fill="#19273B" transform="translate(81,41)"/>
<path d="M0 0 C2 1 2 1 2 1 Z " fill="#192B34" transform="translate(427,40)"/>
<path d="M0 0 C2 1 2 1 2 1 Z " fill="#19283C" transform="translate(83,40)"/>
<path d="M0 0 C2 1 2 1 2 1 Z " fill="#192B34" transform="translate(425,39)"/>
<path d="M0 0 C2 1 2 1 2 1 Z " fill="#18273B" transform="translate(85,39)"/>
<path d="M0 0 C2 1 2 1 2 1 Z " fill="#1C2A3D" transform="translate(89,37)"/>
<path d="M0 0 C2 1 2 1 2 1 Z " fill="#1B2B3D" transform="translate(94,35)"/>
<path d="M0 0 C2 1 2 1 2 1 Z " fill="#162A35" transform="translate(413,34)"/>
<path d="" fill="#17302E" transform="translate(0,0)"/>
<path d="" fill="#193432" transform="translate(0,0)"/>
<path d="" fill="#1A3138" transform="translate(0,0)"/>
<path d="" fill="#1A3039" transform="translate(0,0)"/>
<path d="" fill="#182D35" transform="translate(0,0)"/>
<path d="" fill="#1C3532" transform="translate(0,0)"/>
<path d="" fill="#19302D" transform="translate(0,0)"/>
<path d="" fill="#19313A" transform="translate(0,0)"/>
<path d="" fill="#193531" transform="translate(0,0)"/>
<path d="" fill="#19312E" transform="translate(0,0)"/>
<path d="" fill="#1A303A" transform="translate(0,0)"/>
<path d="" fill="#19322E" transform="translate(0,0)"/>
<path d="" fill="#192C34" transform="translate(0,0)"/>
<path d="" fill="#192C34" transform="translate(0,0)"/>
<path d="" fill="#17312D" transform="translate(0,0)"/>
<path d="" fill="#1A303A" transform="translate(0,0)"/>
<path d="" fill="#182D36" transform="translate(0,0)"/>
<path d="" fill="#193431" transform="translate(0,0)"/>
<path d="" fill="#1A322F" transform="translate(0,0)"/>
<path d="" fill="#1A312F" transform="translate(0,0)"/>
<path d="" fill="#192C34" transform="translate(0,0)"/>
<path d="" fill="#1A303A" transform="translate(0,0)"/>
<path d="" fill="#1A322F" transform="translate(0,0)"/>
<path d="" fill="#192C35" transform="translate(0,0)"/>
<path d="" fill="#182C35" transform="translate(0,0)"/>
<path d="" fill="#183431" transform="translate(0,0)"/>
<path d="" fill="#19322F" transform="translate(0,0)"/>
<path d="" fill="#192C34" transform="translate(0,0)"/>
<path d="" fill="#1A303A" transform="translate(0,0)"/>
<path d="" fill="#19312E" transform="translate(0,0)"/>
<path d="" fill="#182C34" transform="translate(0,0)"/>
<path d="" fill="#18302D" transform="translate(0,0)"/>
<path d="" fill="#182B34" transform="translate(0,0)"/>
<path d="" fill="#193531" transform="translate(0,0)"/>
<path d="" fill="#19312E" transform="translate(0,0)"/>
<path d="" fill="#192B35" transform="translate(0,0)"/>
<path d="" fill="#1A303A" transform="translate(0,0)"/>
<path d="" fill="#19322E" transform="translate(0,0)"/>
<path d="" fill="#192C36" transform="translate(0,0)"/>
<path d="" fill="#182C36" transform="translate(0,0)"/>
<path d="" fill="#1A332F" transform="translate(0,0)"/>
<path d="" fill="#1B2D37" transform="translate(0,0)"/>
<path d="" fill="#1A303A" transform="translate(0,0)"/>
<path d="" fill="#1B332F" transform="translate(0,0)"/>
<path d="" fill="#1B2E37" transform="translate(0,0)"/>
<path d="" fill="#193531" transform="translate(0,0)"/>
<path d="" fill="#1B2D37" transform="translate(0,0)"/>
<path d="" fill="#1A2D35" transform="translate(0,0)"/>
<path d="" fill="#1A303B" transform="translate(0,0)"/>
<path d="" fill="#19312E" transform="translate(0,0)"/>
<path d="" fill="#192C35" transform="translate(0,0)"/>
<path d="" fill="#18312D" transform="translate(0,0)"/>
<path d="" fill="#192C36" transform="translate(0,0)"/>
<path d="" fill="#193431" transform="translate(0,0)"/>
<path d="" fill="#16302D" transform="translate(0,0)"/>
<path d="" fill="#17312D" transform="translate(0,0)"/>
<path d="" fill="#192C36" transform="translate(0,0)"/>
<path d="" fill="#1A2F3A" transform="translate(0,0)"/>
<path d="" fill="#18312D" transform="translate(0,0)"/>
<path d="" fill="#192C35" transform="translate(0,0)"/>
<path d="" fill="#1A303B" transform="translate(0,0)"/>
<path d="" fill="#1A2C36" transform="translate(0,0)"/>
<path d="" fill="#1A2B36" transform="translate(0,0)"/>
<path d="" fill="#1A2F3B" transform="translate(0,0)"/>
<path d="" fill="#1A303C" transform="translate(0,0)"/>
<path d="" fill="#192F2D" transform="translate(0,0)"/>
<path d="" fill="#1A303C" transform="translate(0,0)"/>
<path d="" fill="#17312D" transform="translate(0,0)"/>
<path d="" fill="#182C37" transform="translate(0,0)"/>
<path d="" fill="#193431" transform="translate(0,0)"/>
<path d="" fill="#182C37" transform="translate(0,0)"/>
<path d="" fill="#17302E" transform="translate(0,0)"/>
<path d="" fill="#193432" transform="translate(0,0)"/>
<path d="" fill="#193431" transform="translate(0,0)"/>
<path d="" fill="#17302E" transform="translate(0,0)"/>
<path d="" fill="#182F31" transform="translate(0,0)"/>
<path d="" fill="#19293E" transform="translate(0,0)"/>
<path d="" fill="#1B2C42" transform="translate(0,0)"/>
<path d="" fill="#192D35" transform="translate(0,0)"/>
<path d="" fill="#1B2D44" transform="translate(0,0)"/>
<path d="" fill="#172E36" transform="translate(0,0)"/>
<path d="" fill="#1B2C42" transform="translate(0,0)"/>
<path d="" fill="#1A3139" transform="translate(0,0)"/>
<path d="" fill="#1C293E" transform="translate(0,0)"/>
<path d="" fill="#1B2C43" transform="translate(0,0)"/>
<path d="" fill="#182D35" transform="translate(0,0)"/>
<path d="" fill="#19293F" transform="translate(0,0)"/>
<path d="" fill="#172D35" transform="translate(0,0)"/>
<path d="" fill="#1B2D44" transform="translate(0,0)"/>
<path d="" fill="#192F38" transform="translate(0,0)"/>
<path d="" fill="#1A303A" transform="translate(0,0)"/>
<path d="" fill="#1B293C" transform="translate(0,0)"/>
<path d="" fill="#1A283B" transform="translate(0,0)"/>
<path d="" fill="#1A2B44" transform="translate(0,0)"/>
<path d="" fill="#1B2C42" transform="translate(0,0)"/>
<path d="" fill="#192D34" transform="translate(0,0)"/>
<path d="" fill="#1B283C" transform="translate(0,0)"/>
<path d="" fill="#1A303A" transform="translate(0,0)"/>
<path d="" fill="#1A303B" transform="translate(0,0)"/>
<path d="" fill="#192C35" transform="translate(0,0)"/>
<path d="" fill="#1B283D" transform="translate(0,0)"/>
<path d="" fill="#1B2B41" transform="translate(0,0)"/>
<path d="" fill="#1A2D36" transform="translate(0,0)"/>
<path d="" fill="#1A293C" transform="translate(0,0)"/>
<path d="" fill="#1A2D36" transform="translate(0,0)"/>
<path d="" fill="#1A293B" transform="translate(0,0)"/>
<path d="" fill="#1B2D37" transform="translate(0,0)"/>
<path d="" fill="#1B2A3D" transform="translate(0,0)"/>
<path d="" fill="#1B2C43" transform="translate(0,0)"/>
<path d="" fill="#1A303A" transform="translate(0,0)"/>
<path d="" fill="#1B2E37" transform="translate(0,0)"/>
<path d="" fill="#1C2B3E" transform="translate(0,0)"/>
<path d="" fill="#1C2E37" transform="translate(0,0)"/>
<path d="" fill="#1C2B3D" transform="translate(0,0)"/>
<path d="" fill="#1B2E36" transform="translate(0,0)"/>
<path d="" fill="#1C2A3D" transform="translate(0,0)"/>
<path d="" fill="#1B2B41" transform="translate(0,0)"/>
<path d="" fill="#1B2E36" transform="translate(0,0)"/>
<path d="" fill="#1A293B" transform="translate(0,0)"/>
<path d="" fill="#1A293F" transform="translate(0,0)"/>
<path d="" fill="#1A2C35" transform="translate(0,0)"/>
<path d="" fill="#1A2D35" transform="translate(0,0)"/>
<path d="" fill="#19283B" transform="translate(0,0)"/>
<path d="" fill="#1B2B41" transform="translate(0,0)"/>
<path d="" fill="#1A2C35" transform="translate(0,0)"/>
<path d="" fill="#1A273C" transform="translate(0,0)"/>
<path d="" fill="#1A2C36" transform="translate(0,0)"/>
<path d="" fill="#1A273B" transform="translate(0,0)"/>
<path d="" fill="#1A283D" transform="translate(0,0)"/>
<path d="" fill="#1B2C43" transform="translate(0,0)"/>
<path d="" fill="#1A303B" transform="translate(0,0)"/>
<path d="" fill="#1A2B35" transform="translate(0,0)"/>
<path d="" fill="#1A283C" transform="translate(0,0)"/>
<path d="" fill="#1A2C36" transform="translate(0,0)"/>
<path d="" fill="#1A283D" transform="translate(0,0)"/>
<path d="" fill="#19293F" transform="translate(0,0)"/>
<path d="" fill="#182C36" transform="translate(0,0)"/>
<path d="" fill="#1C2D37" transform="translate(0,0)"/>
<path d="" fill="#1A293F" transform="translate(0,0)"/>
<path d="" fill="#1A2C36" transform="translate(0,0)"/>
<path d="" fill="#19273B" transform="translate(0,0)"/>
<path d="" fill="#1A2B35" transform="translate(0,0)"/>
<path d="" fill="#1A273C" transform="translate(0,0)"/>
<path d="" fill="#1C2E38" transform="translate(0,0)"/>
<path d="" fill="#1A303C" transform="translate(0,0)"/>
<path d="" fill="#1A303C" transform="translate(0,0)"/>
<path d="" fill="#1B2C43" transform="translate(0,0)"/>
<path d="" fill="#16253A" transform="translate(0,0)"/>
<path d="" fill="#182A42" transform="translate(0,0)"/>
<path d="" fill="#1B2C43" transform="translate(0,0)"/>
<path d="" fill="#1B2C43" transform="translate(0,0)"/>
</svg>
